<?xml version="1.0" encoding="UTF-8" standalone="no"?>
<svg
   id="Layer_1"
   data-name="Layer 1"
   version="1.1"
   viewBox="0 0 32 32"
   sodipodi:docname="favicon-32x32.svg"
   inkscape:version="1.4.3 (0d15f75, 2025-12-25)"
   xmlns:inkscape="http://www.inkscape.org/namespaces/inkscape"
   xmlns:sodipodi="http://sodipodi.sourceforge.net/DTD/sodipodi-0.dtd"
   xmlns="http://www.w3.org/2000/svg"
   xmlns:svg="http://www.w3.org/2000/svg">
   <sodipodi:namedview
      id="namedview3"
      pagecolor="#ffffff"
      bordercolor="#000000"
      borderopacity="0.25"
      inkscape:showpageshadow="2"
      inkscape:pageopacity="0.0"
      inkscape:pagecheckerboard="0"
      inkscape:deskcolor="#d1d1d1"
      inkscape:zoom="7.2721805"
      inkscape:cx="-1.4438585"
      inkscape:cy="21.520368"
      inkscape:window-width="1354"
      inkscape:window-height="788"
      inkscape:window-x="0"
      inkscape:window-y="33"
      inkscape:window-maximized="0"
      inkscape:current-layer="Layer_1" />
   <defs
      id="defs1">
      <style
         id="style1">
         .cls-1 {
         fill: #ff407b;
         stroke-width: 0px;
         }
      </style>
   </defs>
   <path
      class="cls-1"
      d="m 4.7239389,15.223454 h 3.7681914 v 8.074697 c 0,0.179438 -0.089719,0.179438 -0.1794373,0.179438 H 2.7501241 v 0.897188 H 8.312693 c 0.6280323,0 1.0766263,-0.538313 1.0766263,-1.076626 V 14.326266 H 5.6211274 V 9.750603 h 8.2541356 v 14.98305 c 0,2.33269 -1.884096,4.216786 -4.2167873,4.216786 H 3.6473126 v -1.794377 h 5.8317261 c 1.5252203,0 2.6915663,-1.166346 2.6915663,-2.691566 V 11.6347 H 7.4155045 v 0.897188 h 3.7681925 v 11.932608 c 0,0.986907 -0.80747,1.794377 -1.7943777,1.794377 H 2.7501241 v 3.678473 h 6.9980706 c 2.7812853,0 5.1139753,-2.242971 5.1139753,-5.113975 V 8.853414 H 4.7239389 Z"
      id="path1" />
   <path
      class="cls-1"
      d="m 22.936867,23.477589 c 0,-0.08972 0.08972,-0.08972 0.08972,-0.08972 3.678473,-0.448595 6.459757,-3.499036 6.459757,-7.177509 0,-3.678473 -3.229878,-7.267228 -7.267227,-7.267228 h -5.652288 v 6.37004 h 5.652288 c 0.448594,0 0.897189,0.358875 0.897189,0.897188 0,0.538314 -0.358876,0.897189 -0.897189,0.897189 h -5.652288 v 7.715821 c 0,1.435502 0.538314,2.691566 1.525221,3.588754 0.986906,0.89719 2.24297,1.525222 3.588753,1.525222 h 7.80554 v -0.897189 h -7.80554 c -1.076626,0 -2.153252,-0.448594 -2.960722,-1.256063 -0.80747,-0.80747 -1.256064,-1.884096 -1.256064,-2.960723 v -6.818632 h 4.66538 c 0.986908,0 1.794377,-0.80747 1.794377,-1.794378 0,-0.986907 -0.807469,-1.794377 -1.794377,-1.794377 h -4.66538 V 9.840322 h 4.755099 c 3.499035,0 6.28032,2.871004 6.28032,6.280321 0,3.409316 -2.422409,5.921444 -5.652288,6.280319 -0.538313,0 -0.986907,0.538313 -0.986907,1.076627 0,0.538313 0.448594,0.986907 1.076626,0.986907 h 5.562569 v 1.794377 h -6.639195 c -0.986908,0 -1.794377,-0.80747 -1.794377,-1.794377 v -3.768192 h 2.063533 c 2.512128,0 4.485943,-2.063534 4.485943,-4.485943 0,-2.422409 -2.063534,-4.485942 -4.485943,-4.485942 h -3.050441 v 0.897188 h 3.050441 c 1.973815,0 3.588754,1.61494 3.588754,3.588754 0,1.973815 -1.614939,3.588755 -3.588754,3.588755 h -3.050441 v 4.755099 c 0,1.52522 1.166345,2.691565 2.691566,2.691565 h 7.536384 v -3.678473 h -6.459758 c 0,0 -0.08972,0 -0.08972,-0.08972 z"
      id="path2" />
   <path
      class="cls-1"
      d="m 11.632291,1.2273119 c -0.807469,0 -1.614939,0.3588755 -2.2429717,0.8971886 -0.628032,0.628032 -0.897189,1.4355016 -0.897189,2.2429713 0,0.8074697 0.358876,1.6149394 0.897189,2.2429713 0.1794384,0.2691566 0.4485944,0.4485943 0.7177517,0.5383132 V 6.07213 c 0,0 -0.08972,-0.089719 -0.1794383,-0.089719 C 9.4790387,5.5338169 9.2996003,4.9955038 9.2996003,4.3674718 c 0,-0.628032 0.2691574,-1.1663451 0.6280324,-1.6149393 0.4485943,-0.4485943 0.9869073,-0.628032 1.6149393,-0.628032 0.628033,0 1.166346,0.2691565 1.61494,0.628032 0.897189,0.8971885 0.897189,2.2429713 0,3.1401598 -0.179438,0.1794377 -0.538313,0.5383131 -0.897189,0.5383131 -0.358875,0 -0.269156,-0.089719 -0.269156,-0.2691565 V 4.1880341 h -0.897189 v 1.9738148 c 0,0.628032 0.538313,1.1663451 1.076627,1.1663451 h 0.08972 c 0.628032,0 1.076627,-0.4485943 1.525221,-0.8074697 1.256064,-1.1663451 1.256064,-3.2298787 0,-4.4859427 C 13.157512,1.4067497 12.350042,1.1375931 11.542572,1.1375931 Z"
      id="path3" />
   <g
      inkscape:groupmode="layer"
      id="layer1"
      inkscape:label="Layer 1"
      style="fill:#ff2a2a" />
</svg>