<?xml version="1.0" encoding="UTF-8" standalone="no"?>
<svg
   id="Layer_1"
   data-name="Layer 1"
   version="1.1"
   viewBox="0 0 16 16"
   sodipodi:docname="favicon-16x16.svg"
   inkscape:version="1.4.3 (0d15f75, 2025-12-25)"
   xmlns:inkscape="http://www.inkscape.org/namespaces/inkscape"
   xmlns:sodipodi="http://sodipodi.sourceforge.net/DTD/sodipodi-0.dtd"
   xmlns="http://www.w3.org/2000/svg"
   xmlns:svg="http://www.w3.org/2000/svg">
   <sodipodi:namedview
      id="namedview3"
      pagecolor="#ffffff"
      bordercolor="#000000"
      borderopacity="0.25"
      inkscape:showpageshadow="2"
      inkscape:pageopacity="0.0"
      inkscape:pagecheckerboard="0"
      inkscape:deskcolor="#d1d1d1"
      inkscape:zoom="19.709568"
      inkscape:cx="3.9828372"
      inkscape:cy="9.5892514"
      inkscape:window-width="1312"
      inkscape:window-height="647"
      inkscape:window-x="1578"
      inkscape:window-y="163"
      inkscape:window-maximized="0"
      inkscape:current-layer="Layer_1" />
   <defs
      id="defs1">
      <style
         id="style1">
         .cls-1 {
         fill: #ff407b;
         stroke-width: 0px;
         }
      </style>
   </defs>
   <path
      class="cls-1"
      d="m 2.5650394,7.7814506 h 1.8494279 v 3.9630604 c 0,0 0,0.08807 -0.088068,0.08807 H 1.5082235 v 0.44034 h 2.7301079 c 0.264204,0 0.528408,-0.264204 0.528408,-0.528408 V 7.3411106 H 2.9173115 V 5.1394108 h 4.0511277 v 7.3977122 c 0,1.144885 -0.8806799,2.025564 -2.0255639,2.025564 H 2.0366315 v -0.880679 h 2.8181758 c 0.704544,0 1.3210199,-0.616477 1.3210199,-1.321021 V 6.1081587 H 3.8860594 v 0.4403399 h 1.8494279 v 5.8124884 c 0,0.44034 -0.352272,0.88068 -0.88068,0.88068 H 1.5082235 v 1.76136 h 3.4346518 c 1.409088,0 2.4659039,-1.144884 2.4659039,-2.465904 V 4.6110028 H 2.5650394 Z"
      id="path1" />
   <path
      class="cls-1"
      d="m 11.459906,11.832579 c 0,0 0,0 0,0 1.761361,-0.176136 3.170448,-1.673292 3.170448,-3.5227204 0,-1.8494279 -1.585223,-3.5227198 -3.52272,-3.5227198 H 8.2894591 v 3.1704478 h 2.7301069 c 0.264204,0 0.44034,0.176136 0.44034,0.4403399 0,0.264204 -0.176136,0.4403401 -0.44034,0.4403401 H 8.2894591 v 3.7869244 c 0,0.704544 0.264204,1.32102 0.704544,1.76136 0.44034,0.44034 1.0568149,0.704544 1.7613589,0.704544 h 3.874992 v -0.44034 h -3.874992 c -0.528407,0 -1.0568149,-0.264204 -1.409087,-0.616476 C 8.9940031,13.682008 8.7297991,13.153599 8.7297991,12.537123 V 9.1905383 h 2.2897669 c 0.44034,0 0.88068,-0.3522717 0.88068,-0.8806797 0,-0.528408 -0.352272,-0.88068 -0.88068,-0.88068 H 8.7297991 V 5.2274787 h 2.2897669 c 1.673293,0 3.08238,1.409088 3.08238,3.0823799 0,1.6732921 -1.144883,2.9062444 -2.730108,3.0823804 -0.264204,0 -0.528408,0.264204 -0.528408,0.528408 0,0.264204 0.264204,0.528408 0.528408,0.528408 h 2.730108 v 0.88068 H 10.84343 c -0.440339,0 -0.8806802,-0.352272 -0.8806802,-0.88068 v -1.849427 h 1.0568162 c 1.232952,0 2.201701,-0.9687496 2.201701,-2.2017015 0,-1.2329519 -0.968749,-2.2016998 -2.201701,-2.2016998 H 9.5224111 v 0.44034 h 1.4971549 c 0.968748,0 1.761361,0.7926119 1.761361,1.7613598 0,0.9687479 -0.792613,1.7613605 -1.761361,1.7613605 H 9.5224111 v 2.289768 c 0,0.704544 0.6164759,1.321021 1.3210189,1.321021 h 3.698856 v -1.761361 h -3.170448 c 0,0 0,0 0,0 z"
      id="path2" />
   <path
      class="cls-1"
      d="m 5.9116232,0.91214693 c -0.4403399,0 -0.7926119,0.17613597 -1.0568159,0.44034007 -0.264204,0.2642039 -0.44034,0.7045439 -0.44034,1.0568159 0,0.352272 0.176136,0.792612 0.44034,1.0568159 0.088068,0.088068 0.264204,0.176136 0.352272,0.264204 V 3.2019149 c 0,0 0,0 0,0 -0.176136,-0.176136 -0.352272,-0.44034 -0.352272,-0.792612 0,-0.352272 0.088068,-0.528408 0.352272,-0.792612 0.176136,-0.1761359 0.528408,-0.352272 0.792612,-0.352272 0.2642039,0 0.5284079,0.088068 0.7926119,0.352272 0.44034,0.44034 0.44034,1.144884 0,1.585224 0,0 -0.264204,0.2642039 -0.4403399,0.2642039 -0.1761361,0 -0.088068,0 -0.088068,-0.088068 V 2.4093029 h -0.44034 v 0.9687479 c 0,0.352272 0.264204,0.528408 0.528408,0.528408 v 0 c 0.264204,0 0.5284079,-0.176136 0.7045439,-0.44034 0.616476,-0.616476 0.616476,-1.5852239 0,-2.2016999 -0.264204,-0.264204 -0.7045439,-0.44034 -1.0568159,-0.44034 z"
      id="path3" />
   <g
      inkscape:groupmode="layer"
      id="layer2"
      inkscape:label="Layer 1" />
</svg>